<svg xmlns="http://www.w3.org/2000/svg" width="717.1445922851562" height="583.4212646484375" viewBox="-470.1966552734375 -242.87033081054688 717.1445922851562 583.4212646484375"><title>Neo4j Graph Visualization</title><desc>Created using Neo4j (http://www.neo4j.com/)</desc><g class="layer relationships"><g class="relationship" transform="translate(-215.34075195462563 63.75892965169038) rotate(360.2357076686119)"><path class="outline" fill="#604A0E" stroke="none" d="M 31.26317983184346,-8.894581878976458 L 31.52199887694598,-7.92865605268739 A 407.3853388541693 407.3853388541693 0 0 1 118.2538234208333,-21.380226628637274 L 118.20790311378511,-22.379171734937245 A 408.3853388541693 408.3853388541693 0 0 0 31.26317983184346,-8.894581878976458 Z M 150.48054662593802,-22.586134800555044 L 150.44744195230814,-21.58668291047536 A 407.3853388541693 407.3853388541693 0 0 1 237.34465450548691,-9.248587832259389 L 236.60542634730223,-6.341090329225746 L 244.25202003892952,-8.008305047000718 L 238.33029204973315,-13.125251169637579 L 237.59106389154846,-10.217753666603937 A 408.3853388541693 408.3853388541693 0 0 0 150.48054662593802,-22.586134800555044"/><text text-anchor="middle" pointer-events="none" font-size="8px" fill="#000000" x="134.34538603508662" y="-19.301587765767522" font-family="sans-serif">hasLeft</text></g><g class="relationship" transform="translate(-290.83977917209097 193.33153969399245) rotate(415.331695323861)"><path class="outline" fill="#D9C8AE" stroke="none" d="M 32.5 0.5 L 39.69085269371652 0.5 L 39.69085269371652 -0.5 L 32.5 -0.5 Z M 87.92913394371652 0.5 L 95.11998663743304 0.5 L 95.11998663743304 3.5 L 102.11998663743304 0 L 95.11998663743304 -3.5 L 95.11998663743304 -0.5 L 87.92913394371652 -0.5 Z"/><text text-anchor="middle" pointer-events="none" font-size="8px" fill="#000000" x="63.80999331871652" y="3" font-family="sans-serif">hasMember</text></g><g class="relationship" transform="translate(-290.83977917209097 193.33153969399245) rotate(181.0404993579068)"><path class="outline" fill="#D9C8AE" stroke="none" d="M 32.5 0.5 L 43.82108442336731 0.5 L 43.82108442336731 -0.5 L 32.5 -0.5 Z M 92.05936567336731 0.5 L 103.38045009673462 0.5 L 103.38045009673462 3.5 L 110.38045009673462 0 L 103.38045009673462 -3.5 L 103.38045009673462 -0.5 L 92.05936567336731 -0.5 Z"/><text text-anchor="middle" pointer-events="none" font-size="8px" fill="#000000" x="67.94022504836731" y="3" transform="rotate(180 67.94022504836731 0)" font-family="sans-serif">hasMember</text></g><g class="relationship" transform="translate(-83.62792670052644 -137.2481372212604) rotate(359.4090081447591)"><path class="outline" fill="#604A0E" stroke="none" d="M 31.26317983184346,-8.894581878976458 L 31.52199887694598,-7.92865605268739 A 252.08785220186363 252.08785220186363 0 0 1 57.28645065291419,-13.407517589832594 L 57.12983586537874,-14.395177353276068 A 253.08785220186363 253.08785220186363 0 0 0 31.26317983184346,-8.894581878976458 Z M 131.9337518164055,-15.063228536420553 L 131.79480158452088,-14.072929171047008 A 252.08785220186363 252.08785220186363 0 0 1 157.65299618976857,-9.055093899085554 L 156.92841712426997,-6.143911119210475 L 164.56651918706018,-7.849606542901363 L 158.61910161043335,-12.936670938918994 L 157.89452254493474,-10.025488159043915 A 253.08785220186363 253.08785220186363 0 0 0 131.9337518164055,-15.063228536420553"/><text text-anchor="middle" pointer-events="none" font-size="8px" fill="#000000" x="94.51144018976295" y="-14.008269050526934" font-family="sans-serif">hasRelatedSpecies</text></g><g class="relationship" transform="translate(-83.62792670052644 -137.2481372212604) rotate(414.5284437933699)"><path class="outline" fill="#A5ABB6" stroke="none" d="M 31.26317983184346,-8.894581878976458 L 31.52199887694598,-7.92865605268739 A 353.7865342823514 353.7865342823514 0 0 1 81.49033463031364,-17.529552882300322 L 81.37275424443463,-18.522616250296778 A 354.7865342823514 354.7865342823514 0 0 0 31.26317983184346,-8.894581878976458 Z M 159.79363915188014,-19.07985064269974 L 159.69018272454957,-18.08521665592673 A 353.7865342823514 353.7865342823514 0 0 1 209.78990792774374,-9.19537231203721 L 209.05470852632857,-6.286853472462882 L 216.6989851203197,-7.964660181997562 L 210.77017379629729,-13.073397431469646 L 210.0349743948821,-10.164878591895318 A 354.7865342823514 354.7865342823514 0 0 0 159.79363915188014,-19.07985064269974"/><text text-anchor="middle" pointer-events="none" font-size="8px" fill="#000000" x="120.57130559349176" y="-17.47469610982091" font-family="sans-serif">hasPrimaryReactant</text></g><g class="relationship" transform="translate(-215.34075195462563 63.75892965169038) rotate(400.84015656138075)"><path class="outline" fill="#604A0E" stroke="none" d="M 32.5 0.5 L 77.19550322030821 0.5 L 77.19550322030821 -0.5 L 32.5 -0.5 Z M 88.97284697030821 0.5 L 133.66835019061642 0.5 L 133.66835019061642 3.5 L 140.66835019061642 0 L 133.66835019061642 -3.5 L 133.66835019061642 -0.5 L 88.97284697030821 -0.5 Z"/><text text-anchor="middle" pointer-events="none" font-size="8px" fill="#000000" x="83.08417509530821" y="3" font-family="sans-serif">is</text></g><g class="relationship" transform="translate(-214.26461423030304 304.0509368943052) rotate(315.6429202269272)"><path class="outline" fill="#604A0E" stroke="none" d="M 31.26317983184346,8.894581878976458 L 31.52199887694598,7.92865605268739 A 223.91448085729667 223.91448085729667 0 0 0 81.44928733372667,15.414467032562243 L 81.41344309697789,16.413824421433645 A 224.91448085729667 224.91448085729667 0 0 1 31.26317983184346,8.894581878976458 Z M 93.2151273264296,16.527262832659915 L 93.19849968949347,15.527401081371323 A 223.91448085729667 223.91448085729667 0 0 0 143.2604580038655,9.0026920148253 L 142.53984636498157,6.090524631946183 L 150.17561717039743,7.806626087909304 L 144.2212735223774,12.885581858664123 L 143.50066188349348,9.973414475785006 A 224.91448085729667 224.91448085729667 0 0 1 93.2151273264296,16.527262832659915"/><text text-anchor="middle" pointer-events="none" font-size="8px" fill="#000000" x="87.3183468128546" y="19.047990686377545" font-family="sans-serif">is</text></g><g class="relationship" transform="translate(60.40682431266079 64.89332708103932) rotate(502.2400880990558)"><path class="outline" fill="#604A0E" stroke="none" d="M 31.26317983184346,8.894581878976458 L 31.52199887694598,7.92865605268739 A 226.5717608673876 226.5717608673876 0 0 0 82.12685634100215,15.506339018472033 L 82.09138753721092,16.505709802494465 A 227.5717608673876 227.5717608673876 0 0 1 31.26317983184346,8.894581878976458 Z M 93.89280401067178,16.6183359941771 L 93.87641481403062,15.618470306080212 A 226.5717608673876 226.5717608673876 0 0 0 144.61667646055898,9.007969105020132 L 143.89566528184562,6.09590061678529 L 151.53167146289252,7.8109544360614285 L 145.57802469884345,12.890727089333257 L 144.8570135201301,9.978658601098415 A 227.5717608673876 227.5717608673876 0 0 1 93.89280401067178,16.6183359941771"/><text text-anchor="middle" pointer-events="none" font-size="8px" fill="#000000" x="87.99613705296765" y="19.138561746340457" transform="rotate(180 87.99613705296765 16.138561746340457)" font-family="sans-serif">is</text></g><g class="relationship" transform="translate(-215.34075195462563 63.75892965169038) rotate(360.2357076686119)"><path class="outline" fill="#604A0E" stroke="none" d="M 31.26317983184346,8.894581878976458 L 31.52199887694598,7.92865605268739 A 407.3853388541693 407.3853388541693 0 0 0 115.59430334754438,21.24926041538987 L 115.54185477396415,22.2478840417524 A 408.3853388541693 408.3853388541693 0 0 1 31.26317983184346,8.894581878976458 Z M 153.14805950223226,22.48905100453561 L 153.10842297590716,21.48983684041417 A 407.3853388541693 407.3853388541693 0 0 0 237.34465450548691,9.248587832259389 L 236.60542634730223,6.341090329225746 L 244.25202003892952,8.008305047000718 L 238.33029204973315,13.125251169637579 L 237.59106389154846,10.217753666603937 A 408.3853388541693 408.3853388541693 0 0 1 153.14805950223226,22.48905100453561"/><text text-anchor="middle" pointer-events="none" font-size="8px" fill="#000000" x="134.34538603508673" y="25.301587765767522" font-family="sans-serif">hasRight</text></g><g class="relationship" transform="translate(60.40682431266079 64.89332708103932) rotate(502.2400880990558)"><path class="outline" fill="#D9C8AE" stroke="none" d="M 31.26317983184346,-8.894581878976458 L 31.52199887694598,-7.92865605268739 A 226.5717608673876 226.5717608673876 0 0 1 63.550141498019265,-14.080505197820372 L 63.43268226977327,-15.073582903591614 A 227.5717608673876 227.5717608673876 0 0 0 31.26317983184346,-8.894581878976458 Z M 112.57544318040783,-15.542574233791953 L 112.47695838852002,-14.547435677727094 A 226.5717608673876 226.5717608673876 0 0 1 144.61667646055898,-9.007969105020132 L 143.89566528184562,-6.09590061678529 L 151.53167146289252,-7.8109544360614285 L 145.57802469884345,-12.890727089333257 L 144.8570135201301,-9.978658601098415 A 227.5717608673876 227.5717608673876 0 0 0 112.57544318040783,-15.542574233791953"/><text text-anchor="middle" pointer-events="none" font-size="8px" fill="#000000" x="87.9961370529676" y="-13.138561746340457" transform="rotate(180 87.9961370529676 -16.138561746340457)" font-family="sans-serif">hasProperty</text></g><g class="relationship" transform="translate(-433.6966695964552 190.73695338271528) rotate(387.3116799086254)"><path class="outline" fill="#D9C8AE" stroke="none" d="M 32.5 0.5 L 89.85235324053862 0.5 L 89.85235324053862 -0.5 L 32.5 -0.5 Z M 150.1101657405386 0.5 L 207.46251898107724 0.5 L 207.46251898107724 3.5 L 214.46251898107724 0 L 207.46251898107724 -3.5 L 207.46251898107724 -0.5 L 150.1101657405386 -0.5 Z"/><text text-anchor="middle" pointer-events="none" font-size="8px" fill="#000000" x="119.98125949053862" y="3" font-family="sans-serif">hasComponent</text></g><g class="relationship" transform="translate(-215.34075195462563 63.75892965169038) rotate(333.2245232776853)"><path class="outline" fill="#D9C8AE" stroke="none" d="M 32.5 0.5 L 50.247949187254534 0.5 L 50.247949187254534 -0.5 L 32.5 -0.5 Z M 96.27138668725453 0.5 L 114.01933587450907 0.5 L 114.01933587450907 3.5 L 121.01933587450907 0 L 114.01933587450907 -3.5 L 114.01933587450907 -0.5 L 96.27138668725453 -0.5 Z"/><text text-anchor="middle" pointer-events="none" font-size="8px" fill="#000000" x="73.25966793725453" y="3" font-family="sans-serif">hasCitation</text></g><g class="relationship" transform="translate(60.40682431266079 64.89332708103932) rotate(206.8780898554573)"><path class="outline" fill="#D9C8AE" stroke="none" d="M 32.5 0.5 L 51.231202107349446 0.5 L 51.231202107349446 -0.5 L 32.5 -0.5 Z M 97.25463960734945 0.5 L 115.98584171469889 0.5 L 115.98584171469889 3.5 L 122.98584171469889 0 L 115.98584171469889 -3.5 L 115.98584171469889 -0.5 L 97.25463960734945 -0.5 Z"/><text text-anchor="middle" pointer-events="none" font-size="8px" fill="#000000" x="74.24292085734945" y="3" transform="rotate(180 74.24292085734945 0)" font-family="sans-serif">hasCitation</text></g><g class="relationship" transform="translate(-83.62792670052644 -137.2481372212604) rotate(447.67811814811466)"><path class="outline" fill="#D9C8AE" stroke="none" d="M 32.5 0.5 L 39.46610070172828 0.5 L 39.46610070172828 -0.5 L 32.5 -0.5 Z M 85.48953820172828 0.5 L 92.45563890345656 0.5 L 92.45563890345656 3.5 L 99.45563890345656 0 L 92.45563890345656 -3.5 L 92.45563890345656 -0.5 L 85.48953820172828 -0.5 Z"/><text text-anchor="middle" pointer-events="none" font-size="8px" fill="#000000" x="62.47781945172828" y="3" font-family="sans-serif">hasCitation</text></g><g class="relationship" transform="translate(-83.62792670052644 -137.2481372212604) rotate(359.4090081447591)"><path class="outline" fill="#D9C8AE" stroke="none" d="M 31.26317983184346,8.894581878976458 L 31.52199887694598,7.92865605268739 A 252.08785220186363 252.08785220186363 0 0 0 46.36613869510958,11.428514801158911 L 46.16620443833981,12.408324115755335 A 253.08785220186363 253.08785220186363 0 0 1 31.26317983184346,8.894581878976458 Z M 142.93111966446713,13.272502351370832 L 142.74871666409766,12.289278498193852 A 252.08785220186363 252.08785220186363 0 0 0 157.65299618976857,9.055093899085554 L 156.92841712426997,6.143911119210475 L 164.56651918706018,7.849606542901363 L 158.61910161043335,12.936670938918994 L 157.89452254493474,10.025488159043915 A 253.08785220186363 253.08785220186363 0 0 1 142.93111966446713,13.272502351370832"/><text text-anchor="middle" pointer-events="none" font-size="8px" fill="#000000" x="94.51144018976296" y="20.008269050526934" font-family="sans-serif">hasExpectedTaxonRange</text></g><g class="relationship" transform="translate(-215.34075195462563 63.75892965169038) rotate(509.82120322267536)"><path class="outline" fill="#604A0E" stroke="none" d="M 32.5 0.5 L 89.7764754959005 0.5 L 89.7764754959005 -0.5 L 32.5 -0.5 Z M 155.8155379959005 0.5 L 213.092013491801 0.5 L 213.092013491801 3.5 L 220.092013491801 0 L 213.092013491801 -3.5 L 213.092013491801 -0.5 L 155.8155379959005 -0.5 Z"/><text text-anchor="middle" pointer-events="none" font-size="8px" fill="#000000" x="122.7960067459005" y="3" transform="rotate(180 122.7960067459005 0)" font-family="sans-serif">hasGeneProduct</text></g><g class="relationship" transform="translate(-215.34075195462563 63.75892965169038) rotate(449.74340495851857)"><path class="outline" fill="#604A0E" stroke="none" d="M 32.5 0.5 L 83.62767722473588 0.5 L 83.62767722473588 -0.5 L 32.5 -0.5 Z M 149.66673972473586 0.5 L 200.79441694947175 0.5 L 200.79441694947175 3.5 L 207.79441694947175 0 L 200.79441694947175 -3.5 L 200.79441694947175 -0.5 L 149.66673972473586 -0.5 Z"/><text text-anchor="middle" pointer-events="none" font-size="8px" fill="#000000" x="116.64720847473588" y="3" font-family="sans-serif">hasGeneProduct</text></g><g class="relationship" transform="translate(-215.34075195462563 63.75892965169038) rotate(480.22838712062935)"><path class="outline" fill="#604A0E" stroke="none" d="M 32.5 0.5 L 38.46240721513648 0.5 L 38.46240721513648 -0.5 L 32.5 -0.5 Z M 104.50146971513648 0.5 L 110.46387693027296 0.5 L 110.46387693027296 3.5 L 117.46387693027296 0 L 110.46387693027296 -3.5 L 110.46387693027296 -0.5 L 104.50146971513648 -0.5 Z"/><text text-anchor="middle" pointer-events="none" font-size="8px" fill="#000000" x="71.48193846513648" y="3" transform="rotate(180 71.48193846513648 0)" font-family="sans-serif">hasGeneProduct</text></g><g class="relationship" transform="translate(-83.62792670052644 -137.2481372212604) rotate(511.322208302983)"><path class="outline" fill="#D9C8AE" stroke="none" d="M 8.894581878976458 31.263179831843463 L 19.247343683077286 69.90021288340618 A 19.926316451256394 19.926316451256394 0 1 1 -19.247343683077286 69.90021288340618 L -10.706315194694104 38.024660615866935 L -6.842611889537831 39.05993679627702 L -8.411618965831924 31.392589354394723 L -13.60409267356131 37.248203480559376 L -9.740389368405035 38.283479660969455 L -18.28141785678822 70.15903192850871 A 18.926316451256394 18.926316451256394 0 1 0 18.28141785678822 70.15903192850871 L 7.92865605268739 31.521998876945982 Z"/><text text-anchor="middle" pointer-events="none" font-size="8px" fill="#000000" x="0" y="103.98383953098741" transform="rotate(180 0 100.98383953098741)" font-family="sans-serif">hasSubPath…</text></g><g class="relationship" transform="translate(60.40682431266079 64.89332708103932) rotate(359.6829629293263)"><path class="outline" fill="#604A0E" stroke="none" d="M 32.5 0.5 L 37.841999580963005 0.5 L 37.841999580963005 -0.5 L 32.5 -0.5 Z M 105.201374580963 0.5 L 110.54337416192601 0.5 L 110.54337416192601 3.5 L 117.54337416192601 0 L 110.54337416192601 -3.5 L 110.54337416192601 -0.5 L 105.201374580963 -0.5 Z"/><text text-anchor="middle" pointer-events="none" font-size="8px" fill="#000000" x="71.521687080963" y="3" font-family="sans-serif">hasCompartment</text></g><g class="relationship" transform="translate(-215.34075195462563 63.75892965169038) rotate(496.5283058419411)"><path class="outline" fill="#D9C8AE" stroke="none" d="M 8.894581878976458 31.263179831843463 L 19.247343683077286 69.90021288340618 A 19.926316451256394 19.926316451256394 0 1 1 -19.247343683077286 69.90021288340618 L -10.706315194694104 38.024660615866935 L -6.842611889537831 39.05993679627702 L -8.411618965831924 31.392589354394723 L -13.60409267356131 37.248203480559376 L -9.740389368405035 38.283479660969455 L -18.28141785678822 70.15903192850871 A 18.926316451256394 18.926316451256394 0 1 0 18.28141785678822 70.15903192850871 L 7.92865605268739 31.521998876945982 Z"/><text text-anchor="middle" pointer-events="none" font-size="8px" fill="#000000" x="0" y="103.98383953098741" transform="rotate(180 0 100.98383953098741)" font-family="sans-serif">isPreceding…</text></g><g class="relationship" transform="translate(-83.62792670052644 -137.2481372212604) rotate(414.5284437933699)"><path class="outline" fill="#A5ABB6" stroke="none" d="M 31.26317983184346,8.894581878976458 L 31.52199887694598,7.92865605268739 A 353.7865342823514 353.7865342823514 0 0 0 83.69720048280968,17.783826402441093 L 83.58585794274627,18.77760849061349 A 354.7865342823514 354.7865342823514 0 0 1 31.26317983184346,8.894581878976458 Z M 157.57713531710692,19.303367471011143 L 157.4799263192039,18.30810348054092 A 353.7865342823514 353.7865342823514 0 0 0 209.78990792774374,9.19537231203721 L 209.05470852632857,6.286853472462882 L 216.6989851203197,7.964660181997562 L 210.77017379629729,13.073397431469646 L 210.0349743948821,10.164878591895318 A 354.7865342823514 354.7865342823514 0 0 1 157.57713531710692,19.303367471011143"/><text text-anchor="middle" pointer-events="none" font-size="8px" fill="#000000" x="120.57130559349172" y="23.47469610982091" font-family="sans-serif">hasPrimaryProduct</text></g><g class="relationship" transform="translate(-214.26461423030304 304.0509368943052) rotate(315.6429202269272)"><path class="outline" fill="#D9C8AE" stroke="none" d="M 31.26317983184346,-8.894581878976458 L 31.52199887694598,-7.92865605268739 A 223.91448085729667 223.91448085729667 0 0 1 61.11058090940901,-13.754514511620158 L 60.983904197929476,-14.746458567889817 A 224.91448085729667 224.91448085729667 0 0 0 31.26317983184346,-8.894581878976458 Z M 113.67294219620626,-15.252908379913094 L 113.56535636577456,-14.258712579735743 A 223.91448085729667 223.91448085729667 0 0 1 143.2604580038655,-9.0026920148253 L 142.53984636498157,-6.090524631946183 L 150.17561717039743,-7.806626087909304 L 144.2212735223774,-12.885581858664123 L 143.50066188349348,-9.973414475785006 A 224.91448085729667 224.91448085729667 0 0 0 113.67294219620626,-15.252908379913094"/><text text-anchor="middle" pointer-events="none" font-size="8px" fill="#000000" x="87.31834681285454" y="-13.047990686377545" font-family="sans-serif">isEncodedBy</text></g><g class="relationship" transform="translate(-83.62792670052644 -137.2481372212604) rotate(483.2354084612069)"><path class="outline" fill="#604A0E" stroke="none" d="M 32.5 0.5 L 91.42201456214322 0.5 L 91.42201456214322 -0.5 L 32.5 -0.5 Z M 141.8946708121432 0.5 L 200.81668537428644 0.5 L 200.81668537428644 3.5 L 207.81668537428644 0 L 200.81668537428644 -3.5 L 200.81668537428644 -0.5 L 141.8946708121432 -0.5 Z"/><text text-anchor="middle" pointer-events="none" font-size="8px" fill="#000000" x="116.65834268714322" y="3" transform="rotate(180 116.65834268714322 0)" font-family="sans-serif">hasReaction</text></g></g><g class="layer nodes"><g class="node" transform="translate(-214.26461423030304,304.0509368943052)"><circle class="outline" cx="0" cy="0" r="32.5" fill="#8DCC93" stroke="#5db665" stroke-width="2px"/><text text-anchor="middle" pointer-events="none" font-family="sans-serif" dy="2.03125" font-size="32.5" fill="#2A2C34"/><text text-anchor="middle" pointer-events="none" x="0" y="5" font-size="10px" fill="#2A2C34" font-family="sans-serif"> GeneProduct</text></g><g class="node" transform="translate(112.46597385132804,-139.27086924882968)"><circle class="outline" cx="0" cy="0" r="32.5" fill="#A5ABB6" stroke="#9AA1AC" stroke-width="2px"/><text text-anchor="middle" pointer-events="none" font-family="sans-serif" dy="2.03125" font-size="32.5" fill="#FFFFFF"/><text text-anchor="middle" pointer-events="none" x="0" y="5" font-size="10px" fill="#FFFFFF" font-family="sans-serif"> Taxa</text></g><g class="node" transform="translate(-290.83977917209097,193.33153969399245)"><circle class="outline" cx="0" cy="0" r="32.5" fill="#8DCC93" stroke="#5db665" stroke-width="2px"/><text text-anchor="middle" pointer-events="none" font-family="sans-serif" dy="2.03125" font-size="32.5" fill="#2A2C34"/><text text-anchor="middle" pointer-events="none" x="0" y="5" font-size="10px" fill="#2A2C34" font-family="sans-serif"> EntitySet</text></g><g class="node" transform="translate(-84.33250327901123,177.0025444239518)"><circle class="outline" cx="0" cy="0" r="32.5" fill="#C990C0" stroke="#b261a5" stroke-width="2px"/><text text-anchor="middle" pointer-events="none" font-family="sans-serif" dy="2.03125" font-size="32.5" fill="#FFFFFF"/><text text-anchor="middle" pointer-events="none" x="0" y="5" font-size="10px" fill="#FFFFFF" font-family="sans-serif"> RDF</text></g><g class="node" transform="translate(-83.62792670052644,-137.2481372212604)"><circle class="outline" cx="0" cy="0" r="32.5" fill="#D9C8AE" stroke="#c0a378" stroke-width="2px"/><text text-anchor="middle" pointer-events="none" font-family="sans-serif" dy="2.03125" font-size="32.5" fill="#2A2C34"/><text text-anchor="middle" pointer-events="none" x="0" y="5" font-size="10px" fill="#2A2C34" font-family="sans-serif"> Pathway</text></g><g class="node" transform="translate(210.44790147695954,64.06309020359686)"><circle class="outline" cx="0" cy="0" r="32.5" fill="#A5ABB6" stroke="#9AA1AC" stroke-width="2px"/><text text-anchor="middle" pointer-events="none" font-family="sans-serif" dy="2.03125" font-size="32.5" fill="#FFFFFF"/><text text-anchor="middle" pointer-events="none" x="0" y="5" font-size="10px" fill="#FFFFFF" font-family="sans-serif"> Compartment</text></g><g class="node" transform="translate(60.40682431266079,64.89332708103932)"><circle class="outline" cx="0" cy="0" r="32.5" fill="#F79767" stroke="#f36924" stroke-width="2px"/><text text-anchor="middle" pointer-events="none" font-family="sans-serif" dy="2.03125" font-size="32.5" fill="#FFFFFF"/><text text-anchor="middle" pointer-events="none" x="0" y="5" font-size="10px" fill="#FFFFFF" font-family="sans-serif"> Compound</text></g><g class="node" transform="translate(-78.28195613681368,-5.400834491354942)"><circle class="outline" cx="0" cy="0" r="32.5" fill="#A5ABB6" stroke="#9AA1AC" stroke-width="2px"/><text text-anchor="middle" pointer-events="none" font-family="sans-serif" dy="2.03125" font-size="32.5" fill="#FFFFFF"/><text text-anchor="middle" pointer-events="none" x="0" y="5" font-size="10px" fill="#FFFFFF" font-family="sans-serif"> Citation</text></g><g class="node" transform="translate(-215.34075195462563,63.75892965169038)"><circle class="outline" cx="0" cy="0" r="32.5" fill="#4C8EDA" stroke="#2870c2" stroke-width="2px"/><text text-anchor="middle" pointer-events="none" font-family="sans-serif" dy="2.03125" font-size="32.5" fill="#FFFFFF"/><text text-anchor="middle" pointer-events="none" x="0" y="5" font-size="10px" fill="#FFFFFF" font-family="sans-serif"> Reaction</text></g><g class="node" transform="translate(-433.6966695964552,190.73695338271528)"><circle class="outline" cx="0" cy="0" r="32.5" fill="#8DCC93" stroke="#5db665" stroke-width="2px"/><text text-anchor="middle" pointer-events="none" font-family="sans-serif" dy="2.03125" font-size="32.5" fill="#2A2C34"/><text text-anchor="middle" pointer-events="none" x="0" y="5" font-size="10px" fill="#2A2C34" font-family="sans-serif"> Complex</text></g></g></svg>